<svg width="30" height="30" viewBox="0 0 30 30" fill="none" xmlns="http://www.w3.org/2000/svg">
<path  fill-rule="evenodd" clip-rule="evenodd" d="M12.9779 3.55957C10.4559 3.55957 8.03721 4.56142 6.25391 6.34473C4.4706 8.12803 3.46875 10.5467 3.46875 13.0687C3.46875 15.5907 4.4706 18.0093 6.25391 19.7927C8.03721 21.576 10.4559 22.5778 12.9779 22.5778C15.1219 22.5778 17.1913 21.8537 18.8591 20.541L24.6128 26.2955C25.0522 26.7349 25.7645 26.7349 26.2038 26.2956C26.6432 25.8563 26.6433 25.144 26.2039 24.7046L20.4501 18.95C21.7629 17.2822 22.487 15.2128 22.487 13.0687C22.487 10.5467 21.4851 8.12803 19.7018 6.34473C17.9185 4.56142 15.4998 3.55957 12.9779 3.55957ZM18.1364 18.1759C19.4818 16.8171 20.237 14.9818 20.237 13.0687C20.237 11.1435 19.4722 9.29707 18.1108 7.93572C16.7495 6.57437 14.9031 5.80957 12.9779 5.80957C11.0526 5.80957 9.20625 6.57437 7.8449 7.93572C6.48355 9.29707 5.71875 11.1435 5.71875 13.0687C5.71875 14.9939 6.48355 16.8403 7.8449 18.2017C9.20625 19.563 11.0526 20.3278 12.9779 20.3278C14.891 20.3278 16.7264 19.5726 18.0852 18.2272C18.0935 18.2184 18.1019 18.2097 18.1105 18.2011C18.119 18.1925 18.1277 18.1842 18.1364 18.1759Z" fill="#AE3BB6"/>
</svg>
