<svg width="360" height="70" viewBox="0 0 360 70" fill="none" xmlns="http://www.w3.org/2000/svg">
<path d="M279.162 15.3948C278.408 12.2964 276.974 9.85414 274.884 8.04369C272.782 6.24539 270.146 4.96957 266.95 4.24053C263.754 3.51149 260.231 3.14697 256.379 3.14697C241.835 3.14697 229.271 13.3171 226.258 27.5455L217.46 68.9793L240.936 50.9841H246.719C251.397 50.9841 255.541 50.5103 259.149 49.5504C262.758 48.6026 265.869 47.1324 268.469 45.164C271.081 43.1834 273.22 40.7168 274.909 37.7399C276.586 34.763 277.874 31.2272 278.748 27.1324C279.769 22.4058 279.903 18.4933 279.149 15.3948H279.162ZM259.234 27.0595C258.991 28.2381 258.603 29.2102 258.068 29.9878C257.533 30.7654 256.829 31.373 255.942 31.8225C255.067 32.26 253.998 32.5637 252.722 32.7338C251.458 32.904 249.963 32.989 248.262 32.989H244.751L246.573 24.4349C246.999 22.4301 248.773 20.9963 250.814 20.9963C252.284 20.9963 253.597 21.0449 254.763 21.1421C255.929 21.2393 256.902 21.4945 257.655 21.9076C258.408 22.3207 258.931 22.9283 259.222 23.7302C259.514 24.5321 259.514 25.65 259.222 27.0595H259.234Z" fill="#AE3BB6"/>
<path d="M214.69 23.1105C213.475 21.4094 211.883 20.1701 209.939 19.4167C207.995 18.6634 205.82 18.2867 203.426 18.2867C202.163 18.2867 200.486 18.5176 198.42 18.9793C196.343 19.441 194.192 20.4495 191.944 22.017L195.966 3.14697H176.294L162.321 68.9793H181.993L188.214 39.5747C189.234 38.1652 190.194 37.2053 191.069 36.7193C191.944 36.2332 192.795 35.9902 193.633 35.9902C194.994 35.9902 195.869 36.4762 196.27 37.4483C196.659 38.4204 196.683 39.6962 196.343 41.2515L190.486 68.9671H210.158L216.306 39.8541C217.132 35.9052 217.375 32.5516 217.035 29.7934C216.695 27.0352 215.917 24.8116 214.69 23.0984V23.1105Z" fill="#AE3BB6"/>
<path d="M141.944 34.0097C142.406 33.9125 142.904 33.8639 143.439 33.8639C144.654 33.8639 146.002 33.9489 147.46 34.119C148.931 34.2891 150.389 34.52 151.847 34.8116C153.317 35.1032 154.678 35.4435 155.942 35.8323C157.205 36.2211 158.262 36.6099 159.089 37.0109L162.309 21.6524C160.109 20.5832 157.667 19.7569 154.957 19.198C152.248 18.6391 149.356 18.3596 146.294 18.3596C139.368 18.3596 133.694 19.6233 129.247 22.1628C124.812 24.7023 121.981 28.7484 120.765 34.3013C120.425 35.9659 120.401 37.5941 120.693 39.198C120.984 40.814 121.652 42.3572 122.697 43.8396C123.742 45.322 125.176 46.695 126.974 47.9343C128.773 49.1737 131.045 50.2673 133.779 51.1907C135.48 51.7253 136.731 52.1628 137.509 52.5151C138.287 52.8675 138.627 53.2199 138.53 53.6087C138.433 53.9975 138.129 54.2405 137.618 54.3377C137.108 54.4349 136.44 54.4836 135.601 54.4836C134.678 54.4836 133.378 54.3742 131.725 54.1555C130.061 53.9368 128.347 53.633 126.573 53.2442C124.799 52.8554 123.074 52.4058 121.409 51.8955C119.745 51.3851 118.457 50.8384 117.533 50.2551L114.168 65.9781C116.707 67.339 119.49 68.3353 122.539 68.9793C125.589 69.6111 128.797 69.927 132.163 69.927C140.207 69.927 146.464 68.5054 150.923 65.6865C155.383 62.8554 158.08 58.7363 159.004 53.3292C159.538 50.3523 159.405 47.8857 158.603 45.9416C157.801 43.9975 156.573 42.3693 154.945 41.0814C153.317 39.7934 151.409 38.7484 149.247 37.9708C147.072 37.1932 144.945 36.4884 142.843 35.8444C141.92 35.5528 141.385 35.2976 141.276 35.0789C141.154 34.8602 141.118 34.678 141.166 34.5322C141.215 34.2891 141.47 34.119 141.932 34.0218L141.944 34.0097Z" fill="#AE3BB6"/>
<path d="M97.7278 19.3074L91.4338 48.712C90.3645 50.1701 89.3925 51.1421 88.5419 51.6038C87.6914 52.0656 86.8408 52.2964 86.0146 52.2964C84.6537 52.2964 83.7667 51.8104 83.3779 50.8384C82.9891 49.8663 82.9647 48.5905 83.305 47.0352L89.2223 19.3074H69.5504L63.3293 48.4204C62.503 52.3693 62.26 55.7229 62.6002 58.4811C62.9405 61.2393 63.7181 63.4629 64.9453 65.1761C66.1604 66.8894 67.7643 68.1166 69.7327 68.8699C71.7011 69.6233 73.8882 70 76.2819 70C76.9137 70 77.6914 69.9514 78.627 69.8541C79.5504 69.7569 80.5468 69.5504 81.6282 69.2345C82.6974 68.9185 83.8396 68.4811 85.0304 67.9222C86.2211 67.3633 87.4119 66.6221 88.5784 65.6865L90.401 68.9793H106.865L117.4 19.3074H97.7278Z" fill="#AE3BB6"/>
<path d="M57.424 8.04369C55.322 6.24539 52.6853 4.96957 49.4897 4.24053C46.294 3.51149 42.7703 3.14697 38.9186 3.14697C24.3742 3.14697 11.8104 13.3171 8.79708 27.5455L0 68.9793L23.4751 50.9841H29.2588C33.9368 50.9841 38.0802 50.5103 41.6889 49.5504C45.2977 48.6026 48.4083 47.1324 51.0085 45.164C53.6209 43.1834 55.7594 40.7168 57.4483 37.7399C59.1251 34.763 60.4131 31.2272 61.288 27.1324C62.3086 22.4058 62.4423 18.4933 61.6889 15.3948C60.9356 12.2964 59.5018 9.85414 57.4119 8.04369H57.424ZM41.774 27.0595C41.531 28.2381 41.1422 29.2102 40.6075 29.9878C40.0729 30.7654 39.3682 31.373 38.4812 31.8225C37.6063 32.26 36.5371 32.5637 35.2612 32.7338C33.9976 32.904 32.503 32.989 30.8019 32.989H27.2904L29.113 24.4349C29.5383 22.4301 31.3123 20.9963 33.3536 20.9963C34.8238 20.9963 36.1361 21.0449 37.3025 21.1421C38.469 21.2393 39.4411 21.4945 40.1944 21.9076C40.9478 22.3207 41.4702 22.9283 41.7618 23.7302C42.0535 24.5321 42.0535 25.65 41.7618 27.0595H41.774Z" fill="#AE3BB6"/>
<path d="M291.118 16.4277C291.75 17.2782 292.6 17.9587 293.682 18.4812C294.751 18.9915 296.027 19.2467 297.485 19.2467C298.943 19.2467 300.413 18.9915 301.725 18.4812C303.038 17.9708 304.228 17.2904 305.273 16.4277C306.318 15.5772 307.193 14.5565 307.874 13.39C308.554 12.2114 309.052 10.9721 309.344 9.65978C309.635 8.29891 309.684 7.02309 309.49 5.85662C309.295 4.69016 308.87 3.65735 308.214 2.7825C307.558 1.90765 306.683 1.22722 305.577 0.72904C304.484 0.243013 303.208 0 301.738 0C300.267 0 298.882 0.243013 297.57 0.72904C296.258 1.21507 295.079 1.8955 294.058 2.7825C293.038 3.6695 292.163 4.69016 291.458 5.85662C290.753 7.03524 290.255 8.29891 289.964 9.65978C289.672 10.9842 289.635 12.2236 289.854 13.39C290.073 14.5565 290.498 15.5772 291.142 16.4277H291.118Z" fill="#AE3BB6"/>
<path d="M304.872 68.9793H324.544L330.765 39.5747C331.786 38.1652 332.746 37.2053 333.621 36.7192C334.496 36.2332 335.346 35.9902 336.185 35.9902C337.545 35.9902 338.42 36.4762 338.821 37.4483C339.21 38.4203 339.234 39.6962 338.894 41.2514L333.038 68.9671H352.709L358.858 39.8541C359.684 35.9052 359.927 32.5516 359.587 29.7934C359.247 27.0352 358.469 24.8116 357.242 23.0984C356.027 21.3973 354.435 20.1579 352.491 19.4045C350.547 18.6512 348.372 18.2745 345.978 18.2745C345.298 18.2745 344.508 18.3231 343.596 18.4203C342.697 18.5175 341.689 18.7241 340.595 19.04C339.502 19.3559 338.347 19.7934 337.157 20.3645C335.966 20.9234 334.775 21.6646 333.609 22.588L331.847 19.2952H315.383L304.848 68.9671L304.872 68.9793Z" fill="#AE3BB6"/>
<path d="M286.877 23.1835L277.145 68.9793H296.829L306.549 23.1835H286.877Z" fill="#AE3BB6"/>
</svg>
