<svg width="24" height="24" viewBox="0 0 24 24" fill="none" xmlns="http://www.w3.org/2000/svg">
<path fill-rule="evenodd" clip-rule="evenodd" d="M9.97787 0.55957C7.45589 0.55957 5.03721 1.56142 3.25391 3.34473C1.4706 5.12803 0.46875 7.54672 0.46875 10.0687C0.46875 12.5907 1.4706 15.0093 3.25391 16.7927C5.03721 18.576 7.45589 19.5778 9.97787 19.5778C12.1219 19.5778 14.1913 18.8537 15.8591 17.541L21.6128 23.2955C22.0522 23.7349 22.7645 23.7349 23.2038 23.2956C23.6432 22.8563 23.6433 22.144 23.2039 21.7046L17.4501 15.95C18.7629 14.2822 19.487 12.2128 19.487 10.0687C19.487 7.54672 18.4851 5.12803 16.7018 3.34473C14.9185 1.56142 12.4998 0.55957 9.97787 0.55957ZM15.1364 15.1759C16.4818 13.8171 17.237 11.9818 17.237 10.0687C17.237 8.14345 16.4722 6.29707 15.1108 4.93572C13.7495 3.57437 11.9031 2.80957 9.97787 2.80957C8.05263 2.80957 6.20625 3.57437 4.8449 4.93572C3.48355 6.29707 2.71875 8.14345 2.71875 10.0687C2.71875 11.9939 3.48355 13.8403 4.8449 15.2017C6.20625 16.563 8.05263 17.3278 9.97787 17.3278C11.891 17.3278 13.7264 16.5726 15.0852 15.2272C15.0935 15.2184 15.1019 15.2097 15.1105 15.2011C15.119 15.1925 15.1277 15.1842 15.1364 15.1759Z" fill="#676879"/>
</svg>
