<svg width="65" height="70" viewBox="0 0 65 70" fill="none" xmlns="http://www.w3.org/2000/svg">
<path d="M59.8681 5.20672C57.6766 3.29457 54.9277 1.93798 51.596 1.16279C48.2644 0.387597 44.5907 0 40.575 0C25.4116 0 12.3131 10.814 9.1715 25.9432L0 70L24.4742 50.8656H30.5041C35.3812 50.8656 39.7009 50.3618 43.4633 49.3411C47.2256 48.3333 50.4686 46.77 53.1795 44.677C55.9031 42.5711 58.1326 39.9483 59.8934 36.7829C61.6416 33.6176 62.9844 29.8579 63.8965 25.5039C64.9606 20.478 65.0999 16.3178 64.3145 13.0233C63.5291 9.72868 62.0343 7.13178 59.8554 5.20672H59.8681Z" fill="#AE3BB6"/>
</svg>
